<mxfile host="app.diagrams.net" modified="2020-06-11T09:23:05.076Z" agent="5.0 (Macintosh; Intel Mac OS X 10_13_6) AppleWebKit/537.36 (KHTML, like Gecko) Chrome/83.0.4103.97 Safari/537.36" etag="eunmpbrNBI8-7Gha3EEd" version="13.2.1" type="github">
  <diagram id="s-AYnQhCjU4W_edRJ31I" name="Page-1">
    <mxGraphModel dx="894" dy="486" grid="1" gridSize="10" guides="1" tooltips="1" connect="1" arrows="1" fold="1" page="1" pageScale="1" pageWidth="827" pageHeight="1169" math="0" shadow="0">
      <root>
        <mxCell id="0" />
        <mxCell id="1" parent="0" />
        <mxCell id="VPAwBAqk6aTSygl4t78--206" value="" style="rounded=0;whiteSpace=wrap;html=1;fillColor=none;dashed=1;" parent="1" vertex="1">
          <mxGeometry x="80" y="560" width="610" height="45" as="geometry" />
        </mxCell>
        <mxCell id="VPAwBAqk6aTSygl4t78--196" value="CRM" style="rounded=0;whiteSpace=wrap;html=1;" parent="1" vertex="1">
          <mxGeometry x="110" y="650" width="110" height="30" as="geometry" />
        </mxCell>
        <mxCell id="VPAwBAqk6aTSygl4t78--197" value="REMARK" style="rounded=0;whiteSpace=wrap;html=1;" parent="1" vertex="1">
          <mxGeometry x="260" y="650" width="110" height="30" as="geometry" />
        </mxCell>
        <mxCell id="VPAwBAqk6aTSygl4t78--198" value="ALiME" style="rounded=0;whiteSpace=wrap;html=1;" parent="1" vertex="1">
          <mxGeometry x="410" y="650" width="110" height="30" as="geometry" />
        </mxCell>
        <mxCell id="VPAwBAqk6aTSygl4t78--199" value="AS" style="rounded=0;whiteSpace=wrap;html=1;" parent="1" vertex="1">
          <mxGeometry x="550" y="650" width="110" height="30" as="geometry" />
        </mxCell>
        <mxCell id="VPAwBAqk6aTSygl4t78--200" value="" style="rounded=0;whiteSpace=wrap;html=1;fillColor=none;dashed=1;" parent="1" vertex="1">
          <mxGeometry x="80" y="635" width="610" height="60" as="geometry" />
        </mxCell>
        <mxCell id="VPAwBAqk6aTSygl4t78--201" value="数据源" style="text;html=1;strokeColor=none;fillColor=none;align=center;verticalAlign=middle;whiteSpace=wrap;rounded=0;dashed=1;fontSize=15;" parent="1" vertex="1">
          <mxGeometry x="80" y="610" width="60" height="20" as="geometry" />
        </mxCell>
        <mxCell id="VPAwBAqk6aTSygl4t78--202" value="DataX" style="rounded=0;whiteSpace=wrap;html=1;" parent="1" vertex="1">
          <mxGeometry x="110" y="570" width="110" height="30" as="geometry" />
        </mxCell>
        <mxCell id="VPAwBAqk6aTSygl4t78--203" value="精卫" style="rounded=0;whiteSpace=wrap;html=1;" parent="1" vertex="1">
          <mxGeometry x="260" y="570" width="110" height="30" as="geometry" />
        </mxCell>
        <mxCell id="VPAwBAqk6aTSygl4t78--204" value="Canal" style="rounded=0;whiteSpace=wrap;html=1;" parent="1" vertex="1">
          <mxGeometry x="410" y="570" width="110" height="30" as="geometry" />
        </mxCell>
        <mxCell id="VPAwBAqk6aTSygl4t78--205" value="sqoop" style="rounded=0;whiteSpace=wrap;html=1;" parent="1" vertex="1">
          <mxGeometry x="550" y="570" width="110" height="30" as="geometry" />
        </mxCell>
        <mxCell id="VPAwBAqk6aTSygl4t78--207" value="数据采集" style="text;html=1;strokeColor=none;fillColor=none;align=center;verticalAlign=middle;whiteSpace=wrap;rounded=0;dashed=1;fontSize=15;" parent="1" vertex="1">
          <mxGeometry x="80" y="530" width="80" height="20" as="geometry" />
        </mxCell>
        <mxCell id="VPAwBAqk6aTSygl4t78--212" value="作业调度D2" style="rounded=0;whiteSpace=wrap;html=1;" parent="1" vertex="1">
          <mxGeometry x="110" y="390" width="30" height="110" as="geometry" />
        </mxCell>
        <mxCell id="VPAwBAqk6aTSygl4t78--213" value="Spark" style="rounded=0;whiteSpace=wrap;html=1;" parent="1" vertex="1">
          <mxGeometry x="160" y="390" width="50" height="40" as="geometry" />
        </mxCell>
        <mxCell id="VPAwBAqk6aTSygl4t78--214" value="Lindorm" style="rounded=0;whiteSpace=wrap;html=1;" parent="1" vertex="1">
          <mxGeometry x="160" y="450" width="50" height="40" as="geometry" />
        </mxCell>
        <mxCell id="VPAwBAqk6aTSygl4t78--215" value="Odps" style="rounded=0;whiteSpace=wrap;html=1;" parent="1" vertex="1">
          <mxGeometry x="220" y="390" width="50" height="40" as="geometry" />
        </mxCell>
        <mxCell id="VPAwBAqk6aTSygl4t78--216" value="Pai" style="rounded=0;whiteSpace=wrap;html=1;" parent="1" vertex="1">
          <mxGeometry x="280" y="390" width="50" height="40" as="geometry" />
        </mxCell>
        <mxCell id="VPAwBAqk6aTSygl4t78--217" value="Oss" style="rounded=0;whiteSpace=wrap;html=1;" parent="1" vertex="1">
          <mxGeometry x="220" y="450" width="50" height="40" as="geometry" />
        </mxCell>
        <mxCell id="VPAwBAqk6aTSygl4t78--218" value="离线计算" style="text;html=1;strokeColor=none;fillColor=none;align=center;verticalAlign=middle;whiteSpace=wrap;rounded=0;dashed=1;fontSize=15;" parent="1" vertex="1">
          <mxGeometry x="150" y="360" width="80" height="20" as="geometry" />
        </mxCell>
        <mxCell id="VPAwBAqk6aTSygl4t78--219" value="分布式数据库" style="text;html=1;strokeColor=none;fillColor=none;align=center;verticalAlign=middle;whiteSpace=wrap;rounded=0;dashed=1;fontSize=15;" parent="1" vertex="1">
          <mxGeometry x="70" y="435" width="30" height="20" as="geometry" />
        </mxCell>
        <mxCell id="bAkaB2A6DjwyET5zN5SZ-1" value="DM数据集市层" style="rounded=0;whiteSpace=wrap;html=1;" vertex="1" parent="1">
          <mxGeometry x="350" y="352.5" width="96" height="30" as="geometry" />
        </mxCell>
        <mxCell id="bAkaB2A6DjwyET5zN5SZ-2" value="DW数据仓库层" style="rounded=0;whiteSpace=wrap;html=1;" vertex="1" parent="1">
          <mxGeometry x="350" y="390" width="96" height="32.5" as="geometry" />
        </mxCell>
        <mxCell id="bAkaB2A6DjwyET5zN5SZ-3" value="ODS贴源数据集" style="rounded=0;whiteSpace=wrap;html=1;" vertex="1" parent="1">
          <mxGeometry x="350" y="430" width="96" height="32.5" as="geometry" />
        </mxCell>
        <mxCell id="bAkaB2A6DjwyET5zN5SZ-4" value="数据接入" style="rounded=0;whiteSpace=wrap;html=1;" vertex="1" parent="1">
          <mxGeometry x="350" y="467.5" width="96" height="32.5" as="geometry" />
        </mxCell>
        <mxCell id="bAkaB2A6DjwyET5zN5SZ-5" value="DIM维度层" style="rounded=0;whiteSpace=wrap;html=1;" vertex="1" parent="1">
          <mxGeometry x="464" y="392.5" width="40" height="60" as="geometry" />
        </mxCell>
        <mxCell id="bAkaB2A6DjwyET5zN5SZ-6" value="Flink" style="rounded=0;whiteSpace=wrap;html=1;" vertex="1" parent="1">
          <mxGeometry x="530" y="380" width="96" height="30" as="geometry" />
        </mxCell>
        <mxCell id="bAkaB2A6DjwyET5zN5SZ-7" value="SparkStream" style="rounded=0;whiteSpace=wrap;html=1;" vertex="1" parent="1">
          <mxGeometry x="530" y="430" width="96" height="30" as="geometry" />
        </mxCell>
        <mxCell id="bAkaB2A6DjwyET5zN5SZ-8" value="Alink" style="rounded=0;whiteSpace=wrap;html=1;" vertex="1" parent="1">
          <mxGeometry x="650" y="425" width="96" height="30" as="geometry" />
        </mxCell>
        <mxCell id="bAkaB2A6DjwyET5zN5SZ-10" value="Pai" style="rounded=0;whiteSpace=wrap;html=1;" vertex="1" parent="1">
          <mxGeometry x="650" y="385" width="96" height="30" as="geometry" />
        </mxCell>
      </root>
    </mxGraphModel>
  </diagram>
</mxfile>
